<svg viewBox="0 0 892 892" fill="none" xmlns="http://www.w3.org/2000/svg">
  <mask id="a" fill="#fff">
    <path fill-rule="evenodd" clip-rule="evenodd" d="M100 0h792v892H0V100h100V0Z"/>
  </mask>
  <path fill-rule="evenodd" clip-rule="evenodd" d="M100 0h792v892H0V100h100V0Z" fill="#D6D5D5"/>
  <path d="M892 0v-30h30V0h-30ZM100 0H70v-30h30V0Zm792 892h30v30h-30v-30ZM0 892v30h-30v-30H0Zm0-792h-30V70H0v30Zm100 0h30v30h-30v-30Zm792-70H100v-60h792v60Zm-30 862V0h60v892h-60ZM0 862h892v60H0v-60Zm30-762v792h-60V100h60ZM0 70h100v60H0V70Zm70 30V0h60v100H70Z" fill="#000" mask="url(#a)"/>
  <path fill="#0E23F3" stroke="#000" stroke-width="30" d="M780 181H213v448h567z"/>
  <path fill="#000" d="M731 728H432v30h299z"/>
  <path fill="#FF0095" d="M795 728h-30v30h30z"/>
  <path fill="#ABABAB" d="M29 130h61v732H29z"/>
  <path d="M567 399c-1.067 4.267-1.6 9.6-1.6 16 0 6.133.533 11.467 1.6 16h32c1.067-4.533 1.6-9.867 1.6-16 0-6.4-.533-11.733-1.6-16h16c1.067-4.533 1.6-9.867 1.6-16 0-6.4-.533-11.733-1.6-16h32c-1.067 4.267-1.6 9.6-1.6 16 0 6.133.533 11.467 1.6 16h16c-1.067 4.267-1.6 9.6-1.6 16 0 6.133.533 11.467 1.6 16h32c1.067-4.533 1.6-9.867 1.6-16 0-6.4-.533-11.733-1.6-16h-16c1.067-4.533 1.6-9.867 1.6-16 0-6.4-.533-11.733-1.6-16h-16c1.067-4.533 1.6-9.867 1.6-16 0-6.4-.533-11.733-1.6-16h-16c1.067-4.533 1.6-9.867 1.6-16 0-6.4-.533-11.733-1.6-16h-32c-1.067 4.267-1.6 9.6-1.6 16 0 6.133.533 11.467 1.6 16h-16c-1.067 4.267-1.6 9.6-1.6 16 0 6.133.533 11.467 1.6 16h-16c-1.067 4.267-1.6 9.6-1.6 16 0 6.133.533 11.467 1.6 16h-16Zm-264.313 0c-1.066 4.267-1.6 9.6-1.6 16 0 6.133.534 11.467 1.6 16h32c1.067-4.533 1.6-9.867 1.6-16 0-6.4-.533-11.733-1.6-16h16c1.067-4.533 1.6-9.867 1.6-16 0-6.4-.533-11.733-1.6-16h32c-1.066 4.267-1.6 9.6-1.6 16 0 6.133.534 11.467 1.6 16h16c-1.066 4.267-1.6 9.6-1.6 16 0 6.133.534 11.467 1.6 16h32c1.067-4.533 1.6-9.867 1.6-16 0-6.4-.533-11.733-1.6-16h-16c1.067-4.533 1.6-9.867 1.6-16 0-6.4-.533-11.733-1.6-16h-16c1.067-4.533 1.6-9.867 1.6-16 0-6.4-.533-11.733-1.6-16h-16c1.067-4.533 1.6-9.867 1.6-16 0-6.4-.533-11.733-1.6-16h-32c-1.066 4.267-1.6 9.6-1.6 16 0 6.133.534 11.467 1.6 16h-16c-1.066 4.267-1.6 9.6-1.6 16 0 6.133.534 11.467 1.6 16h-16c-1.066 4.267-1.6 9.6-1.6 16 0 6.133.534 11.467 1.6 16h-16ZM469 461c-1.067 4.267-1.6 9.6-1.6 16 0 6.133.533 11.467 1.6 16h80c1.067-4.533 1.6-9.867 1.6-16 0-6.4-.533-11.733-1.6-16h-80Z" fill="#fff"/>
</svg>
