<svg viewBox="0 0 7156 900" fill="none" xmlns="http://www.w3.org/2000/svg">
  <mask id="a" fill="#fff">
    <path fill-rule="evenodd" clip-rule="evenodd" d="M100 0h792v892H0V100h100V0Z"/>
  </mask>
  <path fill-rule="evenodd" clip-rule="evenodd" d="M100 0h792v892H0V100h100V0Z" fill="#D6D5D5"/>
  <path d="M892 0v-30h30V0h-30ZM100 0H70v-30h30V0Zm792 892h30v30h-30v-30ZM0 892v30h-30v-30H0Zm0-792h-30V70H0v30Zm100 0h30v30h-30v-30Zm792-70H100v-60h792v60Zm-30 862V0h60v892h-60ZM0 862h892v60H0v-60Zm30-762v792h-60V100h60ZM0 70h100v60H0V70Zm70 30V0h60v100H70Z" fill="#000" mask="url(#a)"/>
  <path fill="#0E23F3" stroke="#000" stroke-width="30" d="M780 181H213v448h567z"/>
  <path fill="#000" d="M731 728H432v30h299z"/>
  <path fill="#FF0095" d="M795 728h-30v30h30z"/>
  <path fill="#ABABAB" d="M29 130h61v732H29z"/>
  <path d="M567 399c-1.067 4.267-1.6 9.6-1.6 16 0 6.133.533 11.467 1.6 16h32c1.067-4.533 1.6-9.867 1.6-16 0-6.4-.533-11.733-1.6-16h16c1.067-4.533 1.6-9.867 1.6-16 0-6.4-.533-11.733-1.6-16h32c-1.067 4.267-1.6 9.6-1.6 16 0 6.133.533 11.467 1.6 16h16c-1.067 4.267-1.6 9.6-1.6 16 0 6.133.533 11.467 1.6 16h32c1.067-4.533 1.6-9.867 1.6-16 0-6.4-.533-11.733-1.6-16h-16c1.067-4.533 1.6-9.867 1.6-16 0-6.4-.533-11.733-1.6-16h-16c1.067-4.533 1.6-9.867 1.6-16 0-6.4-.533-11.733-1.6-16h-16c1.067-4.533 1.6-9.867 1.6-16 0-6.4-.533-11.733-1.6-16h-32c-1.067 4.267-1.6 9.6-1.6 16 0 6.133.533 11.467 1.6 16h-16c-1.067 4.267-1.6 9.6-1.6 16 0 6.133.533 11.467 1.6 16h-16c-1.067 4.267-1.6 9.6-1.6 16 0 6.133.533 11.467 1.6 16h-16Zm-264.313 0c-1.066 4.267-1.6 9.6-1.6 16 0 6.133.534 11.467 1.6 16h32c1.067-4.533 1.6-9.867 1.6-16 0-6.4-.533-11.733-1.6-16h16c1.067-4.533 1.6-9.867 1.6-16 0-6.4-.533-11.733-1.6-16h32c-1.066 4.267-1.6 9.6-1.6 16 0 6.133.534 11.467 1.6 16h16c-1.066 4.267-1.6 9.6-1.6 16 0 6.133.534 11.467 1.6 16h32c1.067-4.533 1.6-9.867 1.6-16 0-6.4-.533-11.733-1.6-16h-16c1.067-4.533 1.6-9.867 1.6-16 0-6.4-.533-11.733-1.6-16h-16c1.067-4.533 1.6-9.867 1.6-16 0-6.4-.533-11.733-1.6-16h-16c1.067-4.533 1.6-9.867 1.6-16 0-6.4-.533-11.733-1.6-16h-32c-1.066 4.267-1.6 9.6-1.6 16 0 6.133.534 11.467 1.6 16h-16c-1.066 4.267-1.6 9.6-1.6 16 0 6.133.534 11.467 1.6 16h-16c-1.066 4.267-1.6 9.6-1.6 16 0 6.133.534 11.467 1.6 16h-16ZM469 461c-1.067 4.267-1.6 9.6-1.6 16 0 6.133.533 11.467 1.6 16h80c1.067-4.533 1.6-9.867 1.6-16 0-6.4-.533-11.733-1.6-16h-80Z" fill="#fff"/>
  <path d="M1137.2 886c-11.73 0-17.6-6.233-17.6-18.7 0-11.733 5.87-17.6 17.6-17.6 27.87 0 46.57-5.5 56.1-16.5 9.53-11 14.3-29.7 14.3-56.1V185.3c0-20.533-2.57-33.733-7.7-39.6-5.13-6.6-12.83-11-23.1-13.2-5.13-1.467-13.2-2.567-24.2-3.3-11-1.467-19.07-2.567-24.2-3.3-10.27-1.467-15.4-7.333-15.4-17.6 0-11 5.5-17.233 16.5-18.7h27.5c16.13-.733 34.1-1.1 53.9-1.1h56.1c16.87-.733 27.5-1.1 31.9-1.1 18.33 0 27.5 9.533 27.5 28.6v658.9c0 27.133 4.77 46.567 14.3 58.3 9.53 11 27.5 16.5 53.9 16.5 11 0 16.5 5.867 16.5 17.6 0 12.467-5.5 18.7-16.5 18.7-5.13 0-15.77-.367-31.9-1.1-15.4-.733-32.27-1.1-50.6-1.1-17.6-.733-33-1.1-46.2-1.1-12.47 0-27.87.367-46.2 1.1-18.33 0-35.57.367-51.7 1.1-15.4.733-25.67 1.1-30.8 1.1Zm533.56 13.2c-52.8 0-98.63-11.733-137.5-35.2-38.87-24.2-68.93-56.833-90.2-97.9-21.27-41.067-31.9-88-31.9-140.8 0-52.8 10.63-99.733 31.9-140.8 21.27-41.067 51.33-73.333 90.2-96.8 38.87-23.467 84.7-35.2 137.5-35.2s98.27 11.733 136.4 35.2c38.87 23.467 68.93 55.733 90.2 96.8 21.27 41.067 31.9 88 31.9 140.8 0 52.8-10.63 99.733-31.9 140.8-21.27 41.067-51.33 73.7-90.2 97.9-38.13 23.467-83.6 35.2-136.4 35.2Zm0-37.4c45.47 0 78.1-21.633 97.9-64.9 20.53-44 30.8-101.2 30.8-171.6 0-69.667-10.27-126.133-30.8-169.4-19.8-44-52.43-66-97.9-66-45.47 0-78.47 22-99 66-20.53 43.267-30.8 99.733-30.8 169.4 0 70.4 10.27 127.6 30.8 171.6 20.53 43.267 53.53 64.9 99 64.9Zm423.52 37.4c-47.67 0-87.27-11-118.8-33-30.8-22-46.2-58.667-46.2-110 0-43.267 13.2-78.833 39.6-106.7 27.13-28.6 64.9-49.5 113.3-62.7 48.4-13.933 104.86-20.533 169.4-19.8v-42.9c0-39.6-6.97-70.767-20.9-93.5-13.94-23.467-36.3-35.2-67.1-35.2-28.6 0-50.24 5.5-64.9 16.5-14.67 10.267-18.34 23.833-11 40.7 11.73 24.933 11.36 47.3-1.1 67.1-12.47 19.067-33.74 28.6-63.8 28.6-18.34 0-33.74-5.867-46.2-17.6-12.47-12.467-18.7-29.7-18.7-51.7 0-22 9.16-42.533 27.5-61.6 18.33-19.067 43.26-34.467 74.8-46.2 32.26-12.467 68.56-18.7 108.9-18.7 66.73 0 116.96 14.667 150.7 44 33.73 29.333 50.6 69.667 50.6 121v233.2c0 29.333 2.93 48.4 8.8 57.2 6.6 8.067 14.66 12.1 24.2 12.1 7.33 0 13.56-1.1 18.7-3.3 5.86-2.933 10.26-5.867 13.2-8.8 8.06-8.067 16.13-7.7 24.2 1.1 3.66 3.667 5.13 7.7 4.4 12.1-.74 4.4-2.57 8.8-5.5 13.2-10.27 16.867-23.1 31.167-38.5 42.9-14.67 11-32.64 16.5-53.9 16.5-27.14 0-50.24-6.967-69.3-20.9-18.34-13.933-31.17-35.567-38.5-64.9-13.2 24.2-32.27 45.467-57.2 63.8-24.2 18.333-59.77 27.5-106.7 27.5Zm55-66c21.26 0 39.6-5.867 55-17.6 15.4-12.467 27.13-27.133 35.2-44 8.06-16.867 12.1-33 12.1-48.4V605.5c-57.94-1.467-104.5 7.7-139.7 27.5-35.2 19.8-52.8 54.633-52.8 104.5 0 28.6 5.5 49.867 16.5 63.8 11 13.2 23.46 22 37.4 26.4 14.66 3.667 26.76 5.5 36.3 5.5Zm518.35 66c-40.34 0-78.1-8.8-113.3-26.4-34.47-17.6-62.7-45.467-84.7-83.6-21.27-38.867-31.9-89.833-31.9-152.9 0-64.533 11-117.7 33-159.5 22.73-41.8 51.33-72.967 85.8-93.5 35.2-20.533 71.13-30.8 107.8-30.8 29.33 0 53.9 4.4 73.7 13.2 20.53 8.067 37.76 17.967 51.7 29.7 13.93 11 24.93 21.633 33 31.9v-242c0-16.867-2.57-28.967-7.7-36.3-5.14-8.067-14.67-13.567-28.6-16.5-5.14-1.467-12.47-2.567-22-3.3-9.54-1.467-16.87-2.567-22-3.3-10.27-.733-15.4-6.6-15.4-17.6 0-12.467 5.5-18.7 16.5-18.7h26.4c16.13-.733 34.46-1.1 55-1.1h57.2c16.86-.733 27.5-1.1 31.9-1.1 18.33 0 27.5 9.533 27.5 28.6v657.8c0 21.267 1.83 37.033 5.5 47.3 3.66 9.533 12.83 16.133 27.5 19.8 5.13.733 11 1.833 17.6 3.3 6.6.733 12.1 1.833 16.5 3.3 10.26 2.2 15.4 8.067 15.4 17.6 0 11-5.5 17.233-16.5 18.7-2.2 0-10.64.367-25.3 1.1h-50.6c-19.07 0-36.67.367-52.8 1.1h-29.7c-18.34 0-27.5-8.8-27.5-26.4v-42.9c-1.47 0-5.5 3.667-12.1 11s-15.77 16.867-27.5 28.6c-11.74 11-27.14 20.9-46.2 29.7-18.34 8.8-41.07 13.2-68.2 13.2Zm25.3-46.2c19.8 0 39.6-6.967 59.4-20.9 19.8-13.933 36.3-33.733 49.5-59.4 13.93-26.4 20.9-57.567 20.9-93.5V545c0-24.933-5.14-48.4-15.4-70.4-10.27-22-24.94-39.967-44-53.9-19.07-14.667-42.54-22-70.4-22-32.27 0-57.57 10.267-75.9 30.8-18.34 20.533-31.54 49.133-39.6 85.8-7.34 36.667-11 79.567-11 128.7 0 46.2 3.66 83.233 11 111.1 8.06 27.867 18.33 48.767 30.8 62.7 13.2 13.933 27.13 23.467 41.8 28.6 14.66 4.4 28.96 6.6 42.9 6.6Zm430.95 46.2c-24.94 0-46.2-8.433-63.8-25.3-16.87-17.6-25.3-38.867-25.3-63.8s8.43-45.833 25.3-62.7c17.6-17.6 38.86-26.4 63.8-26.4 24.93 0 45.83 8.8 62.7 26.4 17.6 16.867 26.4 37.767 26.4 62.7s-8.8 46.2-26.4 63.8c-16.87 16.867-37.77 25.3-62.7 25.3Zm139.69-13.2c-11 0-16.5-6.233-16.5-18.7 0-11.733 5.5-17.6 16.5-17.6 24.93 0 41.8-5.5 50.6-16.5 9.53-11 14.3-29.7 14.3-56.1V460.3c0-14.667-1.1-26.033-3.3-34.1-2.2-8.8-8.07-13.933-17.6-15.4-5.13-1.467-12.83-2.567-23.1-3.3l-23.1-3.3c-10.27-1.467-15.4-7.333-15.4-17.6 0-11.733 5.5-17.6 16.5-17.6 2.2 0 10.63-.367 25.3-1.1 14.67-.733 31.17-1.1 49.5-1.1 18.33-.733 35.2-1.1 50.6-1.1h29.7c18.33.733 27.5 10.267 27.5 28.6v61.6c10.27-16.867 23.83-33 40.7-48.4 17.6-16.133 38.5-29.333 62.7-39.6 24.2-10.267 50.97-15.4 80.3-15.4 27.13 0 52.07 5.133 74.8 15.4 22.73 10.267 41.07 27.5 55 51.7 13.93 24.2 20.9 57.567 20.9 100.1v255.2c0 27.867 4.03 47.3 12.1 58.3 8.8 11 22.37 16.5 40.7 16.5 11 0 16.5 5.867 16.5 17.6 0 12.467-5.5 18.7-16.5 18.7-5.13 0-14.3-.367-27.5-1.1-13.2-.733-27.5-1.1-42.9-1.1-15.4-.733-29.7-1.1-42.9-1.1-12.47 0-26.4.367-41.8 1.1-15.4 0-29.7.367-42.9 1.1-12.47.733-21.63 1.1-27.5 1.1-11 0-16.5-6.233-16.5-18.7 0-11.733 5.5-17.6 16.5-17.6 22.73 0 37.4-5.5 44-16.5 6.6-11 9.9-29.7 9.9-56.1v-242c0-41.8-7.7-71.133-23.1-88-15.4-17.6-37.03-26.4-64.9-26.4-20.53 0-40.7 6.6-60.5 19.8-19.07 12.467-34.83 29.333-47.3 50.6-11.73 21.267-17.6 44.733-17.6 70.4v213.4c0 27.867 4.03 47.3 12.1 58.3s20.17 16.5 36.3 16.5c11.73 0 17.6 5.867 17.6 17.6 0 12.467-5.87 18.7-17.6 18.7-8.07 0-23.47-.367-46.2-1.1-22-1.467-42.53-2.2-61.6-2.2-12.47 0-27.5.367-45.1 1.1-17.6 0-33.73.367-48.4 1.1-14.67.733-24.93 1.1-30.8 1.1Zm842.19 13.2c-83.6 0-149.23-22.733-196.9-68.2-46.93-45.467-70.4-110.733-70.4-195.8 0-53.533 10.64-101.567 31.9-144.1 21.27-42.533 51.34-76.267 90.2-101.2 39.6-24.933 85.44-37.4 137.5-37.4 39.6 0 74.07 7.7 103.4 23.1 29.34 15.4 53.54 35.567 72.6 60.5 19.07 24.933 33.37 52.067 42.9 81.4 9.54 28.6 14.3 56.833 14.3 84.7 0 11.733-7.33 17.6-22 17.6h-341c-1.46 55.733 3.3 99.367 14.3 130.9 11.74 31.533 28.97 53.533 51.7 66 22.74 12.467 50.24 18.7 82.5 18.7 37.4 0 70.77-8.067 100.1-24.2 30.07-16.133 54.64-36.3 73.7-60.5 8.07-9.533 17.24-11 27.5-4.4 10.27 6.6 11.74 15.4 4.4 26.4-14.66 22-31.53 42.533-50.6 61.6-18.33 19.067-41.06 34.833-68.2 47.3-26.4 11.733-59.03 17.6-97.9 17.6Zm-135.3-322.3h228.8c1.47-35.2-1.1-66.733-7.7-94.6-5.86-27.867-16.5-49.867-31.9-66-14.66-16.133-35.93-24.2-63.8-24.2-35.2 0-62.7 16.867-82.5 50.6-19.8 33-34.1 77.733-42.9 134.2Zm573.46 322.3c-31.54 0-59.04-7.333-82.5-22-23.47-14.667-35.2-42.167-35.2-82.5V408.6h-77c-11.74 0-17.6-5.867-17.6-17.6v-3.3c0-5.133 1.46-8.8 4.4-11 3.66-2.933 8.06-5.133 13.2-6.6 42.53-14.667 75.16-36.667 97.9-66 23.46-30.067 38.13-71.867 44-125.4 0-11.733 5.86-17.6 17.6-17.6h18.7c4.4 0 8.43 1.833 12.1 5.5 3.66 2.933 5.5 6.967 5.5 12.1v187h134.2c11.73 0 17.6 5.5 17.6 16.5v8.8c0 11.733-5.87 17.6-17.6 17.6h-134.2v347.6c0 40.333 20.9 60.5 62.7 60.5 19.8 0 37.4-5.867 52.8-17.6 16.13-11.733 28.23-25.3 36.3-40.7 5.86-11 15.03-12.833 27.5-5.5 5.13 2.933 7.7 6.6 7.7 11s-1.1 9.533-3.3 15.4c-12.47 31.533-34.1 59.4-64.9 83.6-30.07 24.2-70.04 36.3-119.9 36.3Zm395.04 0c-14.66 0-24.93-8.433-30.8-25.3-2.2-5.867-6.6-18.7-13.2-38.5s-14.66-43.633-24.2-71.5c-9.53-28.6-19.8-58.3-30.8-89.1-10.26-31.533-20.16-61.6-29.7-90.2-9.53-29.333-17.96-54.267-25.3-74.8-6.6-21.267-11-35.567-13.2-42.9-7.33-23.467-15.4-40.333-24.2-50.6-8.8-10.267-20.53-15.4-35.2-15.4-11 0-16.5-6.233-16.5-18.7 0-11.733 5.5-17.6 16.5-17.6 8.07 0 22.37.733 42.9 2.2 21.27.733 41.44 1.1 60.5 1.1 13.2 0 27.14-.367 41.8-1.1 15.4-.733 29.7-1.1 42.9-1.1 13.2-.733 22.37-1.1 27.5-1.1 11 0 16.5 5.867 16.5 17.6 0 12.467-5.5 18.7-16.5 18.7-18.33 0-30.43 4.033-36.3 12.1-5.86 8.067-7.33 17.967-4.4 29.7 2.2 7.333 6.6 21.633 13.2 42.9s14.3 45.833 23.1 73.7c8.8 27.133 17.24 54.267 25.3 81.4 8.8 26.4 16.14 49.133 22 68.2 6.6 18.333 10.27 29.333 11 33 1.47-2.933 4.77-12.467 9.9-28.6 5.87-16.867 12.47-36.667 19.8-59.4 7.34-23.467 14.67-46.933 22-70.4 7.34-24.2 13.94-45.467 19.8-63.8 5.87-18.333 9.9-30.433 12.1-36.3 8.8-28.6 6.97-49.5-5.5-62.7-12.46-13.2-27.13-19.8-44-19.8-11 0-16.5-6.233-16.5-18.7 0-11.733 5.5-17.6 16.5-17.6 8.07 0 22.37.733 42.9 2.2 21.27.733 41.44 1.1 60.5 1.1 19.07 0 40.34-.367 63.8-1.1 23.47-1.467 39.24-2.2 47.3-2.2 11.74 0 17.6 5.867 17.6 17.6 0 12.467-5.86 18.7-17.6 18.7-18.33 0-30.43 4.033-36.3 12.1-5.13 8.067-6.23 17.967-3.3 29.7 2.2 7.333 6.6 21.633 13.2 42.9s14.3 45.833 23.1 73.7a5041.86 5041.86 0 0 1 25.3 82.5c8.8 26.4 16.14 49.133 22 68.2 6.6 19.067 10.27 30.433 11 34.1 1.47-3.667 4.77-13.933 9.9-30.8 5.14-16.867 11.37-36.667 18.7-59.4 7.34-23.467 14.67-46.933 22-70.4 8.07-24.2 15.04-45.467 20.9-63.8 5.87-18.333 9.9-30.433 12.1-36.3 8.8-28.6 6.24-49.5-7.7-62.7-13.2-13.2-28.6-19.8-46.2-19.8-11 0-16.5-6.233-16.5-18.7 0-11.733 5.5-17.6 16.5-17.6 8.07 0 20.17.733 36.3 2.2 16.14.733 33.74 1.1 52.8 1.1 19.07 0 35.2-.367 48.4-1.1 13.94-1.467 24.94-2.2 33-2.2 11 0 16.5 5.867 16.5 17.6 0 12.467-5.5 18.7-16.5 18.7-14.66 0-30.8 10.633-48.4 31.9-16.86 21.267-31.9 51.7-45.1 91.3-5.13 15.4-12.1 35.933-20.9 61.6-8.06 25.667-17.23 53.533-27.5 83.6-9.53 30.067-19.06 59.4-28.6 88-8.8 28.6-16.86 53.533-24.2 74.8-6.6 20.533-11.36 34.833-14.3 42.9-2.93 7.333-6.96 13.2-12.1 17.6-4.4 4.4-11.73 6.6-22 6.6-15.4 0-26.03-8.433-31.9-25.3-2.93-7.333-8.43-23.1-16.5-47.3-7.33-24.2-16.5-52.067-27.5-83.6a3631.328 3631.328 0 0 0-31.9-95.7c-10.26-32.267-19.43-60.133-27.5-83.6-7.33-24.2-12.46-39.6-15.4-46.2-2.93 8.8-8.43 25.3-16.5 49.5-8.06 24.2-17.23 52.067-27.5 83.6-10.26 30.8-20.53 61.967-30.8 93.5-10.26 30.8-19.43 58.3-27.5 82.5-8.06 23.467-13.56 39.6-16.5 48.4-2.93 7.333-6.6 13.2-11 17.6-4.4 4.4-12.1 6.6-23.1 6.6Zm778.98 0c-52.8 0-98.63-11.733-137.5-35.2-38.86-24.2-68.93-56.833-90.2-97.9-21.26-41.067-31.9-88-31.9-140.8 0-52.8 10.64-99.733 31.9-140.8 21.27-41.067 51.34-73.333 90.2-96.8 38.87-23.467 84.7-35.2 137.5-35.2s98.27 11.733 136.4 35.2c38.87 23.467 68.94 55.733 90.2 96.8 21.27 41.067 31.9 88 31.9 140.8 0 52.8-10.63 99.733-31.9 140.8-21.26 41.067-51.33 73.7-90.2 97.9-38.13 23.467-83.6 35.2-136.4 35.2Zm0-37.4c45.47 0 78.1-21.633 97.9-64.9 20.54-44 30.8-101.2 30.8-171.6 0-69.667-10.26-126.133-30.8-169.4-19.8-44-52.43-66-97.9-66-45.46 0-78.46 22-99 66-20.53 43.267-30.8 99.733-30.8 169.4 0 70.4 10.27 127.6 30.8 171.6 20.54 43.267 53.54 64.9 99 64.9Zm270.62 24.2c-11 0-16.5-6.233-16.5-18.7 0-11.733 5.5-17.6 16.5-17.6 30.07 0 52.43-5.5 67.1-16.5 14.67-11 22-29.7 22-56.1V462.5c0-16.133-1.83-28.233-5.5-36.3-2.93-8.067-9.53-12.833-19.8-14.3-3.67-.733-10.63-1.467-20.9-2.2a438.383 438.383 0 0 0-30.8-3.3c-9.53-.733-16.13-1.467-19.8-2.2-10.27-2.2-15.4-8.067-15.4-17.6 0-12.467 5.5-18.7 16.5-18.7h28.6c17.6-.733 37.03-1.1 58.3-1.1h59.4c18.33-.733 29.7-1.1 34.1-1.1 18.33 0 27.5 9.533 27.5 28.6v79.2c10.27-17.6 23.83-35.567 40.7-53.9 16.87-19.067 36.3-34.833 58.3-47.3 22.73-13.2 47.67-19.8 74.8-19.8 42.53 0 74.07 8.8 94.6 26.4 20.53 17.6 30.8 40.333 30.8 68.2 0 16.133-6.23 32.633-18.7 49.5-11.73 16.133-29.7 24.2-53.9 24.2-27.13 0-45.83-6.967-56.1-20.9-9.53-14.667-14.3-28.967-14.3-42.9 0-14.667-2.2-24.933-6.6-30.8-4.4-6.6-12.1-9.9-23.1-9.9-19.07 0-38.13 9.167-57.2 27.5-18.33 18.333-33.73 42.167-46.2 71.5-11.73 28.6-17.6 59.767-17.6 93.5v166.1c0 27.867 8.43 47.3 25.3 58.3 17.6 11 39.6 16.5 66 16.5 11.73 0 17.6 5.867 17.6 17.6 0 12.467-5.87 18.7-17.6 18.7-7.33 0-24.57-.367-51.7-1.1-26.4-1.467-59.4-2.2-99-2.2-33.73 0-64.9.733-93.5 2.2-27.87.733-45.83 1.1-53.9 1.1Zm469.8 0c-11.73 0-17.6-6.233-17.6-18.7 0-11.733 5.87-17.6 17.6-17.6 24.2 0 41.8-5.133 52.8-15.4 11.74-10.267 17.6-26.767 17.6-49.5V185.3c0-20.533-2.2-33.733-6.6-39.6-3.66-6.6-10.63-11-20.9-13.2-5.13-1.467-13.93-2.567-26.4-3.3-11.73-1.467-20.16-2.567-25.3-3.3-10.26-1.467-15.4-7.333-15.4-17.6 0-11 5.5-17.233 16.5-18.7h27.5c16.14-.733 34.1-1.1 53.9-1.1h56.1c16.87-.733 27.5-1.1 31.9-1.1 18.34 0 27.5 9.533 27.5 28.6v491.7c12.47-11.733 27.5-25.667 45.1-41.8a3538.027 3538.027 0 0 0 53.9-48.4c17.6-16.133 31.9-29.7 42.9-40.7 21.27-21.267 29.7-38.867 25.3-52.8-3.66-14.667-14.3-22-31.9-22-11 0-16.5-6.233-16.5-18.7 0-11.733 5.5-17.6 16.5-17.6 8.07 0 22.37.367 42.9 1.1 20.54.733 40.34 1.1 59.4 1.1 19.07 0 38.5-.367 58.3-1.1 20.54-.733 34.84-1.1 42.9-1.1 11 0 16.5 5.867 16.5 17.6 0 12.467-5.5 18.7-16.5 18.7-23.46 0-46.93 5.867-70.4 17.6-23.46 11.733-52.43 33.733-86.9 66-3.66 3.667-8.43 8.067-14.3 13.2-5.13 4.4-13.93 12.467-26.4 24.2 22.74 38.867 45.1 77 67.1 114.4 22.74 37.4 42.54 69.667 59.4 96.8 16.87 27.133 27.87 44.733 33 52.8 11.74 16.867 22.74 31.533 33 44 11 12.467 23.84 18.7 38.5 18.7 11 0 16.5 5.867 16.5 17.6 0 12.467-5.5 18.7-16.5 18.7-5.13 0-14.66-.367-28.6-1.1-13.2-.733-27.5-1.1-42.9-1.1-15.4-.733-29.7-1.1-42.9-1.1-19.06 0-37.76.733-56.1 2.2-18.33.733-31.53 1.1-39.6 1.1-11 0-16.5-6.233-16.5-18.7 0-11.733 5.5-17.6 16.5-17.6s17.97-3.3 20.9-9.9c2.94-6.6 1.47-14.3-4.4-23.1-3.66-8.067-12.1-23.467-25.3-46.2-13.2-22.733-28.6-49.133-46.2-79.2a3507.83 3507.83 0 0 0-51.7-89.1c-11.73 11-22.36 20.533-31.9 28.6-9.53 8.067-17.23 15.033-23.1 20.9v130.9c0 27.133 5.14 45.1 15.4 53.9 11 8.8 24.57 13.2 40.7 13.2 11 0 16.5 5.867 16.5 17.6 0 12.467-5.5 18.7-16.5 18.7-5.13 0-14.66-.367-28.6-1.1-13.93-.733-28.96-1.1-45.1-1.1-15.4-.733-29.7-1.1-42.9-1.1-12.46 0-27.86.367-46.2 1.1-18.33 0-35.56.367-51.7 1.1-15.4.733-25.66 1.1-30.8 1.1Z" fill="#000"/>
</svg>
